/* XPM */
static char *out[] = {
/* columns rows colors chars-per-pixel */
"64 64 223 2 ",
"   c #1E0609",
".  c #110F10",
"X  c #1B0D12",
"o  c #141213",
"O  c #1A1514",
"+  c #1C1A16",
"@  c #171719",
"#  c #1A1718",
"$  c #1D1C1A",
"%  c #22060A",
"&  c #27080D",
"*  c #2B090E",
"=  c #330A0F",
"-  c #3C0B0F",
";  c #27140F",
":  c #200F15",
">  c #2D0B11",
",  c #350C14",
"<  c #3A0D14",
"1  c #350F18",
"2  c #3B0E18",
"3  c #221313",
"4  c #2C1315",
"5  c #2C1619",
"6  c #211E1D",
"7  c #291B1C",
"8  c #3C121A",
"9  c #35181A",
"0  c #1F201B",
"q  c #23211E",
"w  c #221F20",
"e  c #281F23",
"r  c #341C22",
"t  c #242323",
"y  c #2A2522",
"u  c #282826",
"i  c #2D2A25",
"p  c #272729",
"a  c #2C2B2A",
"s  c #372527",
"d  c #332A25",
"f  c #322D2C",
"g  c #3A312A",
"h  c #3B2C31",
"j  c #353332",
"k  c #3A3633",
"l  c #3A3939",
"z  c #430E16",
"x  c #4A0F17",
"c  c #440E1B",
"v  c #480F1B",
"b  c #421017",
"n  c #491017",
"m  c #44121B",
"M  c #4B121B",
"N  c #461B1C",
"B  c #53141E",
"V  c #561C1F",
"C  c #57291E",
"Z  c #61301F",
"A  c #471721",
"S  c #4D1420",
"D  c #441C24",
"F  c #4D1C22",
"G  c #541520",
"H  c #591720",
"J  c #531B23",
"K  c #5C1922",
"L  c #601D26",
"P  c #4B242B",
"I  c #572228",
"U  c #43352F",
"Y  c #5F3629",
"T  c #492931",
"R  c #463A31",
"E  c #4C3C35",
"W  c #473A38",
"Q  c #583737",
"!  c #6A2F2B",
"~  c #673929",
"^  c #673A33",
"/  c #47452C",
"(  c #49472C",
")  c #4B482C",
"_  c #4D4732",
"`  c #45413C",
"'  c #4B433D",
"]  c #544B39",
"[  c #575434",
"{  c #565539",
"}  c #5B5738",
"|  c #5B5A3C",
" . c #74422B",
".. c #6A4336",
"X. c #754636",
"o. c #73433B",
"O. c #73493D",
"+. c #4D3D42",
"@. c #6A3F44",
"#. c #494645",
"$. c #4B4A49",
"%. c #564842",
"&. c #5A4D43",
"*. c #5B5748",
"=. c #5C5856",
"-. c #624641",
";. c #6D4B43",
":. c #674A49",
">. c #744B40",
",. c #63584A",
"<. c #775544",
"1. c #685758",
"2. c #765654",
"3. c #75704E",
"4. c #64625D",
"5. c #6A645E",
"6. c #636463",
"7. c #6C6561",
"8. c #6B6A6A",
"9. c #786765",
"0. c #726E69",
"q. c #7B7868",
"w. c #7C6F73",
"e. c #7B7772",
"r. c #7B7975",
"t. c #7C7979",
"y. c #82533E",
"u. c #825443",
"i. c #86554C",
"p. c #8A5B4B",
"a. c #8D6658",
"s. c #966A5A",
"d. c #837C59",
"f. c #866B64",
"g. c #9A6C62",
"h. c #867469",
"j. c #9B7869",
"k. c #877975",
"l. c #827E7E",
"z. c #A06F62",
"x. c #A57969",
"c. c #A57D73",
"v. c #8B886A",
"b. c #8D8374",
"n. c #8B847D",
"m. c #918777",
"M. c #95857B",
"N. c #999779",
"B. c #AD8372",
"V. c #AF887D",
"C. c #B68979",
"Z. c #A39D7D",
"A. c #B7B464",
"S. c #B9B665",
"D. c #BDBB66",
"F. c #BEBC69",
"G. c #C1BF67",
"H. c #C1BF6B",
"J. c #C5C36D",
"K. c #C8C76E",
"L. c #C7C86D",
"P. c #CBCA6E",
"I. c #C6C470",
"U. c #C8C770",
"Y. c #CDCC71",
"T. c #D0CF72",
"R. c #D0D070",
"E. c #D3D373",
"W. c #D8D775",
"Q. c #D7D875",
"!. c #D9D976",
"~. c #DCDC78",
"^. c #848383",
"/. c #8B8984",
"(. c #8A888A",
"). c #948C85",
"_. c #989087",
"`. c #95938D",
"'. c #9A948C",
"]. c #9B998D",
"[. c #908E92",
"{. c #949394",
"}. c #999793",
"|. c #9C9A94",
" X c #969698",
".X c #9B9A9A",
"XX c #B98E80",
"oX c #A69C8D",
"OX c #B49281",
"+X c #BC9482",
"@X c #A19692",
"#X c #A19C94",
"$X c #A19F9A",
"%X c #A4A285",
"&X c #ABA584",
"*X c #A4A38C",
"=X c #B1AD89",
"-X c #B7B28C",
";X c #A4A196",
":X c #A3A29D",
">X c #A9A49E",
",X c #A7A89C",
"<X c #AAAB9E",
"1X c #B5B291",
"2X c #BCBB98",
"3X c #BDBA9A",
"4X c #A6A5A1",
"5X c #A9A6A2",
"6X c #A7A8A3",
"7X c #ABAAA5",
"8X c #AEADA9",
"9X c #B1AEA6",
"0X c #B0AFAA",
"qX c #B3B2A6",
"wX c #B3B1AD",
"eX c #B8B5AF",
"rX c #B6B5B1",
"tX c #B8B5B0",
"yX c #C2998A",
"uX c #CBA596",
"iX c #D2AA9F",
"pX c #C1BF9D",
"aX c #DCB9B2",
/* pixels */
"Y.W.E.W.Y.W.Q.E.Y.E.T.E.Y.E.Q.E.L.E.R.E.Y.E.Q.Q.U.Q.T.Q.Y.E.Q.E.Y.E.Y.W.Y.Y.Q.E.P.P.T.T.P.E.Q.Q.Y.T.Y.E.Y.T.Q.Q.Y.E.T.E.T.W.Q.~.",
"E.Y.I.Y.T.W.Q.W.Y.Y.F.K.Y.E.W.E.Y.L.H.I.L.E.Q.E.Y.Y.I.L.Y.E.Q.E.Y.L.J.Y.Y.E.Q.E.P.P.F.P.P.T.Q.E.Y.Y.J.I.Y.E.Q.E.T.Y.J.K.T.E.~.~.",
"Y.Y.U.U.Y.Q.!.E.Y.K.K.J.P.T.Q.E.Y.Y.I.J.L.E.Q.Q.L.L.J.J.Y.E.Q.Q.Y.K.J.U.Y.T.E.E.Y.L.J.K.P.T.Q.Q.Y.P.U.I.Y.T.Q.W.T.Y.P.P.R.E.~.~.",
"E.Y.E.Y.Y.W.!.E.Y.P.T.Y.P.T.E.E.L.Y.L.L.P.R.R.Q.Y.Y.Y.Y.Y.E.Q.E.L.Y.Y.Y.Y.T.Q.E.U.P.T.Y.P.R.Q.E.Y.Y.Y.K.Y.T.E.W.Y.P.T.Y.E.E.~.~.",
"Y.W.Q.W.Y.E.Y.E.P.T.Q.T.K.T.Y.T.Y.Q.E.Y.L.Q.R.R.U.E.Q.E.T.E.T.E.Y.E.E.E.Y.Y.T.E.P.P.Q.T.L.T.T.T.P.E.W.Y.Y.E.Y.W.Y.E.Q.W.P.Q.Q.!.",
"Y.!.Q.W.Y.K.J.Y.Y.E.Q.E.P.K.F.P.L.Q.Q.E.L.L.F.L.Y.E.Q.E.Y.Y.H.I.Y.E.E.E.Y.J.F.P.P.P.E.E.L.L.H.J.Y.E.E.E.Y.P.H.U.P.E.Q.!.T.P.K.Y.",
"E.W.!.W.Y.Y.Y.U.Y.E.Q.T.Y.J.I.H.L.L.R.Q.I.I.L.J.I.E.E.E.U.I.I.I.L.T.E.E.Y.J.L.I.P.Y.E.E.Y.I.P.H.U.Y.E.W.Y.K.K.F.P.E.W.Q.Y.Y.U.Y.",
"Y.W.!.W.Y.Y.Y.Y.Y.E.Q.R.P.%X].`.].].].|.|..X.X*X:X;X,X;X6X,X,X<X7X7X<X<X7X7XqX7X9X9XqXwX0XwXwXwXwXqX2XE.K.Y.Y.Y.P.E.!.!.Y.Y.E.Y.",
"T.Q.E.E.Y.E.Q.E.Y.E.T.E.P.].`.`.{.].}.}.}..X|.|..X:X:X.X:X6X6X6X6X7X6X7X7X8X8X8X8X8XwX0X0X0XwX0XwXwX2XE.L.T.W.W.P.E.E.E.Y.W.!.~.",
"T.Y.I.Y.Y.W.Q.E.Y.P.F.K.P.%X`.`.{.}.}.}..X|..X.X:X.X4X4X4X6X6X7X7X7X7X7X8X7X8X8X8X8X0XwXwXwX0XrXrX0X2XP.Y.E.Q.Q.T.Y.J.P.T.E.~.~.",
"T.L.Y.U.T.E.Q.E.Y.K.U.J.P.%X`.}.{.}..X}.|.|.:X:X4X.X:X4X4X6X6X7X7X8X8X8X8X8XwX8XwXwXrXrXwXwXrXrXrXrX2XJ.Y.T.W.E.P.Y.Y.K.P.E.!.~.",
"T.Y.T.T.Y.W.Q.E.Y.Y.Y.Y.K.%X].{.}.}./.6.6.6.6.6.6.8.6.6.^.4X6X7X|.b.b.b.m.m.m.b.m.k.l.8.8.8.8.6.6.6.q.P.P.T.W.Q.Y.Y.Y.Y.R.W.!.~.",
"E.W.~.E.T.E.E.W.Y.E.E.T.Y.%X}.{.{.[.l o o @ @ @ @ @ @ j {.4X4X5Xr.R R R R R E _ _ 9.W a a p p a p p *.T.L.Y.T.E.P.E.Q.W.T.E.Q.!.",
"Y.W.!.E.Y.L.J.L.L.T.E.T.J.%X}.}.[.$.o . o o o @ @ @ j [.:X4X5X7Xr.u i i i i i g 0.|.j p p p t p p t | R.U.P.J.I.P.E.Q.Q.Y.T.J.Y.",
"T.Q.~.E.Y.P.Y.U.Y.T.Q.T.L.%X{.`.$.o o o o o o @ O t (.:X4X6X7X6Xe.t q q q q i 7.7X:Xj p t p t p u t | T.P.K.I.F.P.T.W.Q.Y.Y.P.Y.",
"Y.Q.!.E.U.Y.Y.Y.U.E.Q.T.L.%X{.4.@ . . . . o o o u /.$X:X6X7X7X7Xe.q q u i i 4.<X9X:Xf p t t t t t t *.E.U.Y.Y.Y.Y.T.W.W.Y.E.Y.Y.",
"E.W.E.E.Y.E.W.E.Y.T.Y.T.K.%X4.@ o . . o o o @ @ e.$X$X4X7X7X5X7Xe.d d d a 6.8X8X0X4Xa t w t t t t t *.R.P.Y.E.E.P.E.T.W.Y.E.~.!.",
"Y.U.U.Y.Y.E.E.E.P.K.F.K.P.q.@ o . . . o o @ 0 0.$X.X4X4X4X7X7X8Xr.d g g *.4X8X0XwX:Xa t w t w q q q { H.P.E.E.E.P.P.J.U.Y.E.~.~.",
"E.U.Y.U.Y.E.Q.E.Y.K.P.K.P.) o o . o . . o @ 4.]..X4X6X5X7X7X7X5Xe.q y =.,X8X8XrX0X:Xa t w w w w t 0 { J.Y.T.Q.E.P.P.P.K.T.E.!.~.",
"Y.E.Y.Y.U.E.W.W.K.Y.P.Y.L.( o o o . @ o $ =.].$X:X4X6X5X7X7X8X7Xl.q #.;X7XwX0X8X0X:Xa w w w w w t 0 { P.P.T.E.Q.P.T.P.Y.Y.E.!.~.",
"E.E.!.E.E.E.Y.E.P.E.W.T.Y./ . o o o o @ *.]..X$X4X4X4X5X7X8X7X7Xr.` ;X7X8X0X0XrX0X:Xp t 0 0 0 0 0 w | R.P.T.E.E.P.P.Q.E.T.E.Q.Q.",
"Y.W.!.E.Y.J.F.Y.K.E.E.T.J./ o o o o o ` `..X$X,X4X4X4X5X7X7X7X7X/.`.9X7X0X8XwXwXwX[.t 0 0 $ 0 $ 0 w | T.P.Y.F.J.P.E.Q.Q.P.R.J.P.",
"E.W.!.W.Y.J.U.U.Y.T.E.Y.P./ o o o + #.`.|..X:X4X4X6X6X6X7X7X5X7X7X8X8XwX0XwX0XwX6X#.0 0 0 0 0 $ 0 t 3.E.Y.U.J.H.Y.E.E.Q.Y.P.Y.Y.",
"Y.W.!.W.P.Y.Y.Y.J.E.T.Y.J./ o o o j ).]..X:X:X,X4X6X6X7X7X7X`.n._.5X0X0X0X0XwX8Xa 0 0 0 $ 0 $ 0 0 $.-XT.P.Y.K.Y.Y.T.W.W.Y.E.Y.Y.",
"Y.W.T.W.Y.E.W.Y.Y.Y.Y.Y.L.( o o j n.].|.:X:X4X4X4X4X6X6X7X).j.V.yX+XoX<XwX0X7X$.0 $ 0 $ + 0 $ 0 *.>X3XY.P.P.E.E.Y.Y.T.W.Y.T.!.W.",
"Y.P.F.Y.P.E.W.T.L.K.F.U.K.( o d n.].|.;X:X:X:X4X4X4X6X6X_.h.OXyXiXaXiXM.wX9Xj 6 0 $ $ + + + 0 ' >XwX2XF.J.P.E.E.P.Y.H.J.Y.E.!.!.",
"T.Y.Y.L.Y.E.W.E.Y.K.I.J.P.( i k.`.|.$X:X:X:X:X:X4X6X6X8X0.f.c.XXuXuXuXV._.$.# $ $ $ 0 + + 0 ] ;XwXeX3XJ.Y.Y.E.Q.Y.K.J.J.Y.E.!.~.",
"Y.T.Y.Y.P.E.W.E.K.K.U.I.J.} e._.].$X$X:X:X:X4X4X4X6X6X6X:.f.j.B.V.+XyX+Xd.6 6 6 + + + + 0 ` ;XwXwXtX2XK.K.Y.E.E.P.Y.Y.Y.P.W.!.~.",
"E.E.!.E.Y.E.Y.E.Y.Y.E.P.P.v.).}.|.$X$X:X:X:X:X4X4X6X6X4X,.f.a.z.C.B.x.C.j.6 $ $ # # # 6 E oXqXeXtXtXpXT.P.P.P.E.P.R.Q.E.E.W.E.!.",
"Y.W.Q.W.Y.P.J.U.K.E.E.E.P.Z.`.|.$X$X:X:X:X:X4X4X4X6X7X.X1.:.O...p.y.X.p.x.y : # # # # ' #XqXwXeXtXtXpXE.K.K.J.K.P.R.Q.Q.Y.P.K.P.",
"E.Q.!.E.Y.P.K.K.P.Y.E.T.P.&X|..X$X:X$X$X:X:X4X6X4X4X4X(.2.;.Q ^ x.s.^ a.c.E # # # @ U @XwXwXwXeXtXtXpXT.P.K.J.J.P.E.E.!.Y.Y.K.Y.",
"Y.W.!.W.Y.P.Y.Y.K.E.E.E.K.| k j j j j j j l l j l l l Q 2.i.g.s.c.C.C.C.C.E $ # @ 7 '.9X9XwXeXwXeXwXN.E.K.Y.P.P.P.E.W.Q.Y.E.Y.Y.",
"T.E.E.E.Y.E.W.Y.P.Y.Y.P.L.) O o o o o O O + O O O # # s 2.a.z.u.o.p.x.C.x.E o o o a >X7X9X0XeXwXeX^.| T.K.Y.E.E.Y.E.T.E.Y.E.!.!.",
"Y.Y.J.Y.Y.E.E.E.P.P.F.K.J.) O o . o o o O O O o O # # 6 2.2.i.o.^ p.s.s.s.Y o o O a ;X9X9X0X0XwXe.y [ H.J.Y.T.E.Y.P.J.U.Y.E.!.~.",
"E.U.I.U.Y.E.W.Y.Y.J.J.H.J.) O . . o . o O O O O O @ @ o W 2.>.^ y.i.^ p.<.7 o o O i ;X>X9X9XwX^.q # _ F.P.Y.T.E.K.J.F.J.Y.W.!.~.",
"Y.Y.E.Y.Y.E.E.E.K.K.P.J.J.) O . . o o o o O o X O X o X s :.;.O.o.p.y. ...o O O O f ;X9X7XwXk.y 6 O [ J.K.T.E.E.P.P.Y.L.Y.E.!.~.",
"E.W.Q.E.Y.E.W.E.P.Y.E.Y.K./ o . . o . O X o O o X o @ X y -.-.:.O.X.X.~ ..5 O o O f $X5X7Xn.q 3 + + [ E.P.R.E.E.P.P.E.E.Y.E.Q.Q.",
"Y.!.!.E.Y.P.H.K.P.T.E.E.K./ . . . o . X o O o o o @ @ 4 s :.-...Y C Z ~ <.F J 8 O f $X5Xe.i + O + O [ R.L.P.G.K.P.E.E.E.Y.T.L.Y.",
"E.W.!.E.Y.U.J.K.Y.E.E.E.U._ @ o O # + + X o o X o 5 8 8 4 ..;.Q Y Z ~ y.U P K L L Q |.b.q O O O 3 O [ E.P.K.G.G.T.E.E.W.Y.P.U.U.",
"Y.W.!.W.Y.P.Y.P.K.Y.E.R.J.N.^.n.n.l.n.8.$ O O 4 1 1 8 1 1 r Q O.X. .! ^ 7.I K K L L L P + O O O O + [ R.L.P.P.K.P.E.W.W.Y.Y.E.Y.",
"E.E.E.E.Y.E.W.E.K.P.R.E.P.*X X.X X.X Xl.@ o A A 2 2 1 2 1 : X , = = n D =.K K K K K K L @.+.%.&.&.&.d.Y.P.T.E.E.P.E.E.W.Y.E.Q.Q.",
"Y.Y.J.Y.P.E.E.E.K.K.F.K.K.*X.X X.X.X X^.w 5 S c 2 2 2 1 1 > X > 4 b B T T H K K K K K K ! _.@X'.|.|.&XI.J.Y.E.E.P.P.J.Y.Y.E.!.!.",
"E.K.U.Y.Y.E.W.Y.P.J.J.F.J.*X.X.X.X X X^.e A S S c 2 2 2 2 , X > x B V +.K L H L K J G G K k.9X5X7X7X1XF.L.Y.Q.R.P.J.J.F.Y.E.!.~.",
"P.T.Y.Y.K.E.W.E.K.U.U.K.G.*X.X.X.X X X(.r A c A v c c c 2 2 r r G B F h H H L H V B M m B @.#X5X5X5X1XH.J.Y.T.T.K.P.P.P.P.E.~.!.",
"E.W.Q.E.P.T.R.T.Y.P.T.Y.K.;X X.X X X{.(.T c 2 c S S S S S S A +.G G P h H H L H K B b z M I _.>X>X5X1XY.J.L.T.T.P.T.E.E.Y.E.Q.!.",
"Y.Q.Q.E.P.P.F.L.K.Y.T.Y.H.;X.X.X X X{.(.T 8 2 1 S G G G H K K 1.T G 1.I K K B L B B z z m M k.>X5X>X1XT.J.J.F.J.K.T.E.E.Y.Y.J.Y.",
"E.W.!.E.Y.J.U.J.Y.P.T.Y.K.*X X X X X X^.D 2 , > c S G G H G H c s M h J H K H L L B x z b N ;.>X>X>X1XT.P.K.F.F.P.T.E.Q.Y.Y.P.K.",
"Y.E.Q.E.K.Y.P.Y.K.Y.E.Y.H.*X.X X X X Xl.c 2 , & S S G G G G H B t e h B H H H B H B z < 8 m G @X$X>X-XE.J.P.P.P.K.T.W.E.Y.Y.T.T.",
"E.W.E.E.Y.T.E.Y.P.T.Y.T.P.*X X X X X[.l.c 2 , & 1 c S G B B B B 5 y < B B B B V B < & = < b M M.$X>X=XR.P.Y.P.R.P.E.E.E.Y.E.Q.Q.",
"Y.Y.J.Y.P.E.Q.E.J.K.G.J.J.*X X X X[.[.t.2 1 , & 2 S S S B B B v , 7 n B B B B B B V * * - < b 9.w.5.&XJ.J.P.E.E.P.L.H.K.P.E.!.!.",
"Y.Y.U.K.T.E.Q.E.P.J.J.J.K.*X X X X X[.w.2 2 >   2 v S S B v v B 2 3 n n x n n M n b % & = = b @.W W &XG.P.P.Y.E.P.K.J.F.R.E.~.~.",
"Y.Y.Y.Y.P.E.E.T.J.L.J.K.D.*X{. X[. X X9.2 2 >   > c c c v v B v b O n n x x n n z b % % * < < N O =.Z.J.J.Y.E.E.K.P.P.Y.P.E.!.!.",
"E.E.Q.E.Y.E.T.Y.Y.U.R.P.K.%X X[. X[.[.6.< , &   > c c c c S B v 2 X b n x B n n - z % % * - b N ; 5.d.P.J.Y.Y.Y.P.P.E.E.Y.E.!.!.",
"Y.W.Q.E.U.U.F.I.J.Y.E.Y.G.%X X X{.[.[.:.< = &   > c c S c S v B , 3 x n x x x n z n 9 % * = - b 3 5.} Y.F.K.F.J.J.T.E.E.P.P.K.Y.",
"T.Q.Q.E.Y.J.H.J.U.Y.T.P.I.].[.[.{.[.[.Q 2 , & % > c c c c S S S < 3 M M x B B n M M D ; & = - m -.h.d.E.U.H.F.F.P.P.E.E.Y.U.K.K.",
"Y.E.Q.E.J.Y.I.P.G.Y.T.Y.D.|. X[.{.[.[.T < * % % 2 2 c c c v v v c 3 x x x x n M B M N 5 % * - n f.}.&XT.J.Y.L.Y.J.P.E.W.P.Y.Y.E.",
"Y.W.E.E.T.P.E.R.U.R.Y.T.L.*X{.{.{.`.`.T 8 9 ; ; A F J J J J J C F q J V V V C K C V ;.%.4 N V F f.oX=XT.P.P.R.R.P.P.E.E.Y.T.Q.W.",
"Y.Y.I.Y.K.E.E.T.J.L.F.J.J.L.T.P.D.G.A.A.S.L.L.L.H.H.A.S.H.J.K.L.G.J.A.G.D.G.K.G.S.D.A.F.A.G.K.K.D.J.D.F.F.R.R.T.L.P.F.K.P.E.!.!.",
"E.U.P.P.T.E.W.T.Y.J.J.H.P.R.R.P.L.D.D.S.J.R.R.R.K.J.H.G.K.P.R.E.K.H.H.G.K.K.P.P.J.G.F.F.P.P.R.R.K.J.F.F.L.R.E.E.P.K.F.J.Y.E.!.~.",
"Y.Y.P.P.L.E.Q.T.G.P.I.P.D.P.R.P.G.L.G.J.G.P.R.R.K.K.J.K.J.E.R.T.J.P.J.K.J.K.R.R.S.J.J.P.G.L.R.R.J.P.J.K.J.P.E.R.P.P.P.Y.P.E.!.~.",
"E.E.W.T.Y.E.T.Y.P.P.T.P.P.P.P.P.P.L.L.L.J.Y.P.E.K.P.R.P.K.P.P.T.K.P.R.L.J.J.G.R.L.J.P.L.J.K.P.Y.K.P.P.K.K.Y.P.T.P.P.E.T.Y.E.E.!.",
"Y.W.Q.E.P.L.J.U.J.T.T.P.D.K.D.J.F.L.P.R.D.K.A.F.H.L.P.R.J.K.F.K.J.P.R.P.G.G.S.J.D.G.R.R.F.J.D.F.J.P.P.P.J.P.F.J.L.P.E.E.P.E.K.P.",
"T.W.!.E.Y.I.J.G.P.T.Y.Y.K.F.F.F.F.P.L.P.G.F.D.F.J.P.R.P.J.F.F.F.L.P.P.R.K.D.G.D.J.L.Y.P.K.F.F.F.K.K.R.Y.L.I.F.D.P.P.E.E.Y.Y.K.U.",
"Y.W.Q.E.L.L.J.P.J.P.Y.P.F.I.F.F.F.G.R.J.D.J.J.H.J.Y.Y.P.J.J.J.J.K.L.P.L.S.D.D.G.F.J.P.P.F.H.H.J.F.K.T.P.F.J.J.J.J.T.E.E.Y.Y.Y.T."
};
