/* XPM */
static char *out[] = {
/* columns rows colors chars-per-pixel */
"64 64 21 1 ",
"  c #BDBD66",
". c #BEBD69",
"X c #C0BF67",
"o c #C1BF69",
"O c #BFC067",
"+ c #BFC069",
"@ c #C1C167",
"# c #C4C46B",
"$ c #C8C76C",
"% c #C7C86D",
"& c #CBCB6E",
"* c #D0CF6F",
"= c #CFD06F",
"- c #D1D16F",
"; c #CDCD70",
": c #D0CF71",
"> c #CFD071",
", c #D3D372",
"< c #FF0000",
"1 c #D9DA76",
"2 c #DBDB78",
/* pixels */
"><<1:,<<::<<:,1<&,,,*,<1*,,<;:2,;:<<;,2,&:,<&,11*::<&,<1::,<*,12",
"&:$;:,12$*#*$*<<$$o&$&1,%&#*;,,<$;o:$:,<$%#&$,<<$&#$$,<,$:#*&<22",
";;;$;,<1*$##$:<<;%#@%=,,$;$$;:<<;$o$;:,,;$##&*<<$#$$&,<<&&$&*<22",
"&::;;,1<$*$*$:<:$;$;$-,<%%&:$:<<o;::$:<<%%$;&:1<;:$:%:<<&;::&<22",
",,11=-<,*:<:$:::%,,,;&:,;:<,::<,;-,-*:<,%&,,;::,$,<:;:,,**<<*,<1",
"&<11&&$;$:<:$$o;%,1,%$#%$;<,&;o&%,,<#$o*%;<<#$#$$:,,$$o;#:<1$*$*",
";,21*;$$*,<<;###&=,,%#%%$:<<$&oo;,,,%%#%%,<,;##$;:,<$$#$$<<1&*&*",
"&<21&&:;$,<,$;$;%=,,%%&,%:,<$&::$,,,%$$$%;,>$$&&#,<,$;&;&:1<;:::",
":,<<;,1:;,,<*:,:$*--&-,-;:,,;:<:$=,,$-,<&**,;,,,::,:$:<,$-<<::21",
"::$:;:1<$&#&#:<<$$#&$&-,$&#;$:,,%%%&$,<-$&X&%:,1$$#*&:<<$*#:$<22",
":&$&;,<1&&##$:<<$$%$%*,,$$#$;:<<$$$$&-,,&$$$;,<<&$##;:<<&;#$*<12",
";:::;:<<$*&:$:<:%&$&$-,1;:*:%:,<$;;;$,,,$$&&$,,<$*$*$:,<&:::*112",
"*,1<;,<<;:,,*:<<%,,:%;,,;;,,;:,:&:,,&,,,&*,-%,<,::<:&:,<*:1<*<,2",
":,22;;#;;;<:##o$#,,,%%.$#:<,$$#;%&,,%%o;$&,-$%@%$:<,%$o;$:<1$&$*",
":,2<;$$$$><,$#o$$;,,$#@#%:,,;$##;*,,%%@%&&-,$%@#$,,:%###$,<<&&$:",
"&<21%;;;$,<,%$$$#;<,%$%$$:,,$;&;#&,,@%%$#&,<#%$&$:,,%;$*$*<<&**:",
":<<<::<<;:,,$;,&%**,$&,-$;::;;,:::,:&---$*,,;:,,;:,,;;:,;:,<::21",
"::$*$,<<$;#$$:,,%$X$%&<,$$#;$:<,$&o%%--<$$o$#:,,#$#$#,,<$&#:&<22",
"::$$;,<<;$$#;:,,%$#%&&,,$$##$:,,$$##%--<&##$$&,<$$#$&;,,%&$$*<11",
"$:::;,<<$;$;$:,,$$$$%*,1$$$;%,<<$*$$%-,,#&&&$:,<$&$;$;22$*&*$<12",
"*,11;,<<;:<:&*;:$&,,$=--;;>,;:,,&*,,$**-$*--;;,,;;,,&;,,&:<<*-11",
"*,11$$o;$,,<$$#$%&,,##%&%;,<$$o$$*,,#%X$@*,<$$o%$:,,$&o;$:<<&&&-",
"*<12;$$$$;,,$$#%%&,-%@#%$;,,$$##$*,,%#X%$&<,%###$:,,&$##$,<<&&&;",
";<22$*$*%,,;#;%%#%=,.#$&$;,>#;$%%,,,@%%$#*,,#$$;#;,<#&&;$:<<$:*:",
"*:<1;:,:;:::$:,;$&&=%&,:$;:,%:,,%::,%&*:%&;-%;,;$;;;$:::&-,<&:1<",
";*#*;*1,$$o&$*,;##.%#&,,#$o$%&,,#%o&%%,&#@.%%;,,##o##*<<$&#&;,12",
"*;$;;*<<;$o$$*:,%#@@%&:,$###$&,:#%o#%&,&@$@#$;,,####%;<:&$##--21",
";**:;:1<$$&&o:,,%$%%#*:*$;$:%:,<$$$&%&,-%&$&$:,,#&$&#;,<$&**&111",
"*:1<$,<<;:,,;;,,$&:&$*:*$;,;%*,:%&<,$&=-$&--**,:&:::$*:,*:,<*,<1",
";<11$*#$o:,<$oo;#&--@$X&%:,,$$#%$&,,$%X$#&--#$o$#:<<#$#*#:<<&*$:",
"*,11*$##;:<,$ooo$&--%@#@$,,,$$%$%*,,$@@#$*:*$$###::<$$#$;*<<&$&;",
";<1<$***$:,:o;$*#&--#%#$%;,,$%$$%&,,%$$%$*:,#$$&o:<:$$$&$:<<;**,",
":,,<::1:;;,,$%,&%&;;%;;;%;:,%;,;$&;:%$&&%&;,%&,;%;:;%;,,%::<%,11",
";;$;&:<:#;o%#%,;#@ #%%>,#$.%+;,,#$.%@;,&##.%@&,,##.$o;:<$%#;%,11",
":;$$$,:<%##o#;:,#+. %%;;##+#%;,:@@o#%&;>#@..%%:;###.%;:,$##$&,12",
";:;;;,<<#$$%+;::#%%%@%;>#%%;+;,:%#%%+%&,X%$%%;,;##%;#:,,%;$;&122",
":,1,::,<;;,:#;:;%%&>%%>;$;;;$:::&&-,%&&&$&*,$;;;$;:,;;:<$*,,;1<1",
";,2<&&o;$;,,#$o$@;>=#$+%#;,:#$.;$*,-##.%%&,*#$o$#;,,###$$*<,&&%-",
"*<21&$$#$:<,$$@%%&&,#$o##:,,$#+#$&--$@. #*,:$$###;:,$$##&,<<&&&&",
"$<11&;;;$:<,#$$%#&&&+%$$$;,,#$$;$*<-$$@$@*:,#$%;#;::#$$&%*,<&:*,",
":<<<:,<:$;:,$;,;$&%&%&,*$:::$;,;$&**%==&#&&-#;>>%;;;$;,,$-,<&,21",
"$*#;$:<<%$o;@;:>%#.@O$&-.%.;#;:,#%X$+&>=O@.%.;,>$$.$#;,,$&#&%,11",
":&$$%,,<$##o#;;;@@.+@$-,##o#$;;;##o@#&>&@@@@#;;,%#o##;,,#$$$&,11",
"::*:%:<,$$%%@%;,@%@#+%&>+####;;,o%#%+%>&.%@%#;;;o#+#+;,,#%$&%111",
",,<,&,,,%;:;%%&%+%&%@&&;#$;;#&;;%$;;@%%&+%;;#%$;%;;$@;&>%:,,&,<1",
"&,21%&o;%&,;o%X#O%=&OO.+o$:;#o.#o;;;+@ #.%&;@+.$#$;;o#.%#:,,&=%>",
":,1<&$##$;::@#oo@%==O+.O#;:,##oo#%::## .%&:&###o#$,,%#o%$*,<;&%&",
"&<11$&$;$:,:###%@&&&O####;,,o#&##;:,+%@@@&,,##%%#;,,%$$$%-<<$:*,",
":<<<::,,$::,$;**#=%&$&-=#&--&&,,$$==$&-&%&&*%&;;$;;;%;,,%:,,&,21",
";&#*$,<<#$o;#;*:@#.@#&==#$@$#;:,#%@$@&&=X@X#%;,,##o$+;=,$$#&%,11",
":;$$;:<,$####;::##OO@&==@%@##;:,$@@@$&&&@@o #&,:##o#$;,,$$#$&<11",
"&:;:$:<<$$#$X#:*#@OO@&&&#$$$#;::@@@&@&&&%$%$@;;;###$+;,,%$$&$<11",
":,<,;:,:$;,;#$&*##&#@$&&@&;;%;;;&&*%#%%%@%%&#;$;$$;;#%;;$&,,&-11",
"&<<<$$o$%%,;#o #+%&&OO #@$;;#@.#X$;&.. .X%&;@o ##$;;+#.$%><,&&$-",
":,11;###%;:;+.  O#&%OO @##;;++.##&;&++..@;;;@o.o#;;,#+++@&<,&&&&",
"&<1<%;$;#;,;+##.O&&&O##@@;;:##$%#%;>+##@@%;;#%o%#$:;#%%;%;,,&&*,",
":,<<&:,,$;:,&&;;@%&&#&&&#$&*$&:&%%:&#%$$@%&*%%:&$$*:$%,:%&,,&,2<",
";:#:%:<,$#o$#&,;@@ @@$=-##X##%,,#%o$@$&&X#X%@&*:#oo##&,;$$@&$,12",
":;$$;,<,$##o#;;:@@  @&=-##o##&,;%#oX#$&-@@o#$&,:##X##*,,$$#&&<11",
"&:&:&,<,#$$&o;;;@@O#O$=-#$$$o:;:@$$$@&*-X#o$#$*:@$$$#&,,%$$&&<11",
"*,<<&,,,;;;;#&:&%%&&O%;;$$**%;;:%&>&#@$-@%;&%$$;#$*$%;;;$&,,*-11",
";,11%;o%#>>>o#.#O%&= . #o$:*+#.#@%>&O@ @.%;:oo.##***##.%#;<<$&$-",
":<<<;####;;;#.. ++&&   .o$&;##.o#%&&O.  +%;;#o..#$:;+#oo#;<,%&%*",
";:1<%%###;;;+#.#.+&% +##o$;&.####$&% O O.#%;...$o$:$ #%%@:,<%:&:"
};
