/* XPM */
static char *out[] = {
/* columns rows colors chars-per-pixel */
"64 64 227 2 ",
"   c #0E0506",
".  c #190909",
"X  c #161514",
"o  c #191917",
"O  c #1D1C1B",
"+  c #20090E",
"@  c #240C14",
"#  c #290D15",
"$  c #290E18",
"%  c #261616",
"&  c #2C121A",
"*  c #221D19",
"=  c #33151E",
"-  c #381919",
";  c #22211E",
":  c #29241F",
">  c #382419",
",  c #1C1E21",
"<  c #2E1921",
"1  c #331621",
"2  c #361923",
"3  c #3B1C25",
"4  c #3D1E29",
"5  c #1E2022",
"6  c #222324",
"7  c #2C2621",
"8  c #2E2924",
"9  c #262729",
"0  c #272829",
"q  c #2A2B2B",
"w  c #382727",
"e  c #322C25",
"r  c #3D212C",
"t  c #342F29",
"y  c #3D3022",
"u  c #36312B",
"i  c #39342E",
"p  c #3B3631",
"a  c #383736",
"s  c #3E3933",
"d  c #482A1C",
"f  c #411F25",
"g  c #42222C",
"h  c #492A2C",
"j  c #46352A",
"k  c #5A3826",
"l  c #442631",
"z  c #462933",
"x  c #4B2A35",
"c  c #4D2E39",
"v  c #502D36",
"b  c #512F3A",
"n  c #453836",
"m  c #423C35",
"M  c #53323D",
"N  c #58373B",
"B  c #57452D",
"V  c #434534",
"C  c #49433B",
"Z  c #524639",
"A  c #5A5539",
"S  c #66412A",
"D  c #664735",
"F  c #754C35",
"G  c #665437",
"H  c #6C5A3C",
"J  c #755A3C",
"K  c #3D3E41",
"L  c #4D3A43",
"P  c #563541",
"I  c #5A3642",
"U  c #5B3944",
"Y  c #573B48",
"T  c #603C46",
"R  c #3F4142",
"E  c #434343",
"W  c #4A4642",
"Q  c #4C4945",
"!  c #45474A",
"~  c #4C4C4B",
"^  c #534C47",
"/  c #56534A",
"(  c #4C4E51",
")  c #4E5154",
"_  c #4F5458",
"`  c #525559",
"'  c #53565A",
"]  c #6B484A",
"[  c #6D4D4C",
"{  c #685947",
"}  c #785546",
"|  c #675859",
" . c #765B51",
".. c #746547",
"X. c #6A6857",
"o. c #796758",
"O. c #717055",
"+. c #585D61",
"@. c #715964",
"#. c #5E6368",
"$. c #66696A",
"%. c #776A63",
"&. c #7C786B",
"*. c #786F71",
"=. c #797774",
"-. c #7A7874",
";. c #787979",
":. c #8E5E3E",
">. c #855A45",
",. c #915B50",
"<. c #8D6B4D",
"1. c #976749",
"2. c #89675A",
"3. c #976C57",
"4. c #99715A",
"5. c #A77358",
"6. c #A4745A",
"7. c #856866",
"8. c #966F62",
"9. c #867469",
"0. c #9A7969",
"q. c #827C72",
"w. c #8C7F72",
"e. c #AB7864",
"r. c #B27B66",
"t. c #A47C73",
"y. c #7F817F",
"u. c #9B8355",
"i. c #BC845E",
"p. c #B2925C",
"a. c #9A886A",
"s. c #91887A",
"d. c #AD8069",
"f. c #B48467",
"g. c #A2986F",
"h. c #B59765",
"j. c #AB8675",
"k. c #B88775",
"l. c #B9B766",
"z. c #BDBB66",
"x. c #BEBC69",
"c. c #C48E69",
"v. c #C39767",
"b. c #C38B77",
"n. c #C6957C",
"m. c #C0BF67",
"M. c #C1BF6B",
"N. c #C5C36D",
"B. c #C8C76E",
"V. c #C7C86D",
"C. c #CBCA6E",
"Z. c #C6C571",
"A. c #C8C770",
"S. c #CDCC71",
"D. c #D0CF72",
"F. c #D0D070",
"G. c #D4D373",
"H. c #D7D776",
"J. c #D9D976",
"K. c #DCDC78",
"L. c #8E7F85",
"P. c #7C8081",
"I. c #838687",
"U. c #948C87",
"Y. c #98938C",
"T. c #9C9A94",
"R. c #A58E88",
"E. c #AB9B8A",
"W. c #A39D95",
"Q. c #B6A88C",
"!. c #AAA69D",
"~. c #A9A4A2",
"^. c #ABAAA5",
"/. c #B4AEA8",
"(. c #B5B2AE",
"). c #BAB4AA",
"_. c #B6AFB0",
"`. c #B6B4B1",
"'. c #B9B5B2",
"]. c #BDBBB5",
"[. c #C99684",
"{. c #D39A85",
"}. c #D8A28D",
"|. c #C3B68D",
" X c #C9BA99",
".X c #C7BCAB",
"XX c #D3BBA1",
"oX c #C1BEB7",
"OX c #CDC596",
"+X c #C5C2AC",
"@X c #C8C4A8",
"#X c #D6C9A9",
"$X c #DAD0AB",
"%X c #CAC3B4",
"&X c #C9C6B4",
"*X c #C7C3BA",
"=X c #CAC6BC",
"-X c #CDC9BC",
";X c #D1CCBD",
":X c #DCCEB8",
">X c #DAD6B5",
",X c #D3D1BC",
"<X c #DFD2BD",
"1X c #E1DBBC",
"2X c #CECAC2",
"3X c #CAC8C6",
"4X c #D2CDC4",
"5X c #D0CFCD",
"6X c #D5D0C4",
"7X c #DDD3C1",
"8X c #D4D2CC",
"9X c #D9D5CB",
"0X c #DCD9CE",
"qX c #D6D5D0",
"wX c #DDDBD2",
"eX c #DADBD5",
"rX c #E1D6C3",
"tX c #E1D9C6",
"yX c #E4DDCD",
"uX c #E1DED5",
"iX c #E7E1CE",
"pX c #E5E1D4",
"aX c #E9E3D5",
"sX c #E5E2D8",
"dX c #E9E6DD",
"fX c #EBE8DE",
"gX c #ECE9E0",
/* pixels */
"S.H.G.G.D.H.H.G.C.G.D.G.C.G.H.G.V.G.F.G.C.G.H.H.C.H.G.G.S.H.J.G.C.G.D.H.A.G.H.G.C.C.G.G.C.G.J.H.C.G.S.G.S.D.J.J.C.G.G.H.S.G.J.K.",
"G.S.Z.S.D.G.H.H.S.C.N.B.C.G.H.H.S.C.N.N.V.G.H.G.C.S.N.B.S.H.G.G.S.N.N.S.S.G.J.F.C.V.x.V.B.G.H.G.C.S.M.N.C.G.H.G.D.S.N.N.G.H.J.K.",
"G.A.A.A.S.H.J.G.S.B.B.N.C.F.H.G.S.A.Z.N.V.G.G.H.A.A.N.N.C.H.H.H.C.B.N.N.S.F.F.G.S.N.N.N.C.S.H.G.S.B.A.Z.C.D.J.H.D.S.V.V.C.H.J.K.",
"D.D.G.D.D.H.J.G.F.C.D.C.B.G.G.F.S.A.C.A.C.G.F.H.C.C.D.C.A.G.H.H.C.C.G.S.S.G.H.G.S.C.D.A.C.G.H.H.D.D.S.B.S.D.H.H.F.C.D.S.D.H.K.K.",
"S.H.J.G.C.G.G.G.A.D.J.S.B.D.S.D.S.G.G.S.A.G.S.G.S.H.J.G.S.H.S.G.S.G.G.D.S.D.D.G.C.S.H.G.A.D.D.S.C.G.G.G.A.G.S.H.C.G.H.H.F.H.H.J.",
"D.H.J.H.F.C.M.S.S.G.H.G.C.B.M.B.S.G.H.G.C.A.M.Z.A.G.H.G.A.S.N.B.S.G.D.G.C.N.x.V.C.A.G.G.A.A.M.N.C.D.G.G.S.C.x.N.C.F.J.H.D.C.B.C.",
"D.H.J.H.C.B.S.A.D.G.H.D.S.Z.Z.N.Z.D.G.G.A.Z.Z.M.A.H.H.G.A.N.Z.N.S.G.H.H.S.N.A.A.A.G.H.H.S.Z.Z.N.S.D.J.H.A.V.N.N.C.H.H.J.S.S.B.A.",
"D.H.J.H.D.C.D.S.S.G.H.S.@X+X+X.X+X+X&X%X&X&X&X&X&X-X-X-X-X-X;X-X-X2X-X,X2X;X,X6X,X;X6X,X6X6X7X;X4X;X4X#XS.S.D.S.C.G.J.J.S.S.G.G.",
"S.H.G.H.C.G.H.G.S.G.C.J.@X%XoX%X*X*X*X*X-X2X-X2X-X2X2X2X4X4X4X4X8X4X6X4X6X8X9X6X6X9X9X6X9X9X9X8X9X6X6X>XC.S.H.H.C.H.H.H.C.G.K.K.",
"G.S.N.A.S.G.J.G.A.V.N.N.@XoX*X*X*X=X-X-X2X*X2X2X2X4X4X4X4X4X4X4X6X8X8X8X8X9X9X9XqX9XqX0X9XeX9X9X9X9X9X$XC.G.H.H.C.C.N.C.D.G.K.K.",
"S.B.C.C.D.H.H.H.D.C.Z.N.@X*X*X*X*X2X-X3X2X2X6X2X4X4X8X4X4X8X6X9X8X9X9X9XwX0X0XeX0XuXuX9XwXwXwXwXwX0X0X>XA.F.H.H.F.S.S.N.C.H.J.K.",
"S.D.G.D.C.H.H.G.S.S.S.S.+X3X=X=X2X2X2X~.=.=.=.=.-.;.-.-.=.W.4X4X9X=X;.;.;.;.y.P.I.I.I.I.I.I.P.;.;.$.+.&.C.G.G.H.S.C.S.D.F.G.J.K.",
"G.H.J.H.D.H.G.H.C.G.H.G.@X2X-X2X2X4XW.q 6 6 9 9 9 9 q q Q ).;X6X9X^.K R R ( ( _ ' +.=.Y.$.#.#.+.+.' _ O.A.G.S.H.C.F.J.H.F.H.H.H.",
"S.H.J.H.S.A.M.A.N.G.G.C.&X-X2X2X2X~.a 9 6 9 6 9 9 q q ~ /.4X6X0X0X).R R ! ! ( ) ` -.2X!.#.#.+.` _ _ _ O.B.C.N.N.C.G.H.H.D.C.N.C.",
"D.H.J.G.S.B.S.N.S.G.H.F.&X2X2X4X_.a 6 6 6 6 6 9 0 q ~ ).;X6X9X0X0X`.m R R ! ! ~ @.-XyX~.+.' ` ` _ ( ( X.B.A.N.M.C.G.H.H.S.S.C.S.",
"S.H.J.G.C.S.S.S.V.G.J.H.&X2X2X(.K 6 6 6 9 6 9 9 8 E !.;X6X9XwXwXuX`.R E ! ! ! *.6X0XuX^.` ` _ ) ( ( ( X.B.S.S.A.C.G.H.H.S.D.D.D.",
"G.H.D.G.D.G.H.D.S.G.D.D.&X6XoXR 5 6 6 6 6 0 0 0 C /.,X6X9X0XwXsXuX`.R L E E X.&X0XyXdX^.` ) ) ( ( ~ ! O.C.S.G.G.C.G.G.H.C.H.J.J.",
"S.A.N.S.C.G.H.G.V.A.x.N.&XoXR 6 5 6 ; 6 0 6 0 i W.-X6X9X0XpXwXuXuX'.C W W $.6XyXaXdXdX~.) ) ~ ( ~ ~ W X.N.G.G.G.C.C.N.A.S.H.J.J.",
"G.B.S.S.D.H.J.G.S.A.C.N.@X/ 5 5 6 6 6 9 6 6 V !.-X6X0XwXwXuXsXuXsX].W W X.%XyXpXsXdXdX^.~ ( ~ ~ ~ ~ ! O.C.G.H.G.C.C.C.N.C.H.J.K.",
"S.G.C.D.C.G.H.G.A.S.C.S./ 5 5 5 5 6 6 6 9 u T.-X6X0XuXwXpXuXuXsXsX].^ X.6X0XpXdXfXfXgX^.~ ~ ~ W Q ! C O.C.S.G.H.C.D.C.S.C.H.K.K.",
"D.G.J.G.D.D.D.G.S.D.H.S.V 5 6 , 5 6 6 6 u T.-X,X0XeXwXwXwXsXsXsXuX).o.&XyXpXdXfXfXfXgX^.~ ~ Q ~ Q Q Q O.C.G.G.G.C.F.H.H.G.H.H.J.",
"F.H.J.G.C.N.M.C.V.G.G.S.V < , 6 6 6 9 u Y.-X,X9XwXwXwXuXuXuXeX8XqXoX.XsXaXdXdXsXfXfXgXY.Q Q W Q Q ~ Q O.C.C.x.N.C.C.H.H.C.C.N.C.",
"D.J.J.H.D.N.S.N.C.D.G.S.V 5 6 5 6 6 u s.&X4X9XwXwXuXuXuXuX!.7. . .w.&XdXfXfXfXfXfXdXY.~ W Q Q Q Q Q / O.S.A.N.N.C.G.H.H.D.C.B.A.",
"D.H.J.H.C.S.B.D.N.G.G.S.R 5 , 6 6 0 U.-X4X9X0XwXuXeXuXsX!.{  . .2.o.{ *XdXfXfXfXgXT.Q E Q Q Q ~ C Q A g.V.S.C.S.C.G.H.H.C.G.C.G.",
"D.H.D.G.D.D.G.D.D.D.S.S.V 6 6 5 q q.%X4X9X0XwXwXuXwXuX2X@.e.k.[.[.[.j.s.dXfXfXdXT.W E Q Q ^ / { { { E.>XC.C.G.F.C.G.G.G.S.D.J.H.",
"C.C.M.S.C.G.H.G.N.N.M.M.V 5 6 9 s.&X;X9X0X0XwXwXwXwXwX&.8.r.b.[.}.}.{.2.aXfXfXU.E m n C Z { ....o.E.tX>XN.C.G.G.C.A.M.N.S.G.K.K.",
"D.N.S.C.D.G.J.D.S.Z.N.M.V 6 0 -..X-X9X0XwXwXwXeXwXeXeXX.t.t.b.{.}.}.{.t.5XdXW.m s m m V C C ^ ..Q.0XyX>XC.S.H.G.C.B.N.N.C.H.J.K.",
"D.D.D.D.C.G.J.G.N.N.D.N.V 6 w.&X4X9X0X0X0XwXwXeXeXqXqX%.8.} T e.e.} 3.j.4XY.s s p s s V C C Z E.0XyXiX1XB.D.H.H.C.D.C.S.F.G.J.K.",
"D.G.J.G.F.G.D.G.D.D.G.F.C %.+X-X9X0XwXwXwX0XwXeXeXqX3X9.8.>.>.r.e.>.3.b.E.s p p p p s s m Z E.iXiXaXaX>XC.C.F.G.F.F.G.H.F.H.G.H.",
"D.H.J.G.C.C.M.B.B.D.G.D.s..X;X9XuXuXuXeXwXwXeXwXeXeX.X0.t.t.r.k.{.b.}.{.r.n t p u p p s s E.yXiXiXaXaX1XB.C.M.N.C.F.H.H.D.C.N.C.",
"D.H.J.H.D.C.N.C.C.D.G.D.#X,X8XwX0XuXwXuXwXuXuXeXeXeX4X9.k.b.r.5.e.{.{.[.t.i i i u p s V E.iXiXaXaXfXaX1XC.B.N.N.C.G.H.H.D.S.C.C.",
"D.H.J.G.C.C.D.C.C.D.G.F.X.W ~ ~ ~ / / / ~ ~ ~ ^ ) / Q  .t.b.e.8.5.b.{.f.{ t t i u u p %.uXiXiXaXaXaXaX1XC.C.B.B.C.F.H.H.C.D.D.D.",
"D.H.G.G.D.D.H.D.S.S.S.C.V 5 5 5 5 : 8 t : ; 5 < * * O j 8.3.>.,.,.1.b.3.e u u u u u u &.iXiXiXaXaXaXpX.XV.S.G.G.C.G.G.G.S.G.H.J.",
"D.S.N.S.S.G.H.D.C.A.x.Z.V 5 5 5 5 : 0 8 ; 5 O O * * o * D >.e.e.b.5.3.B e y e u u u u &.iXyXiXaXaXaXY.H N.S.G.G.C.C.M.V.S.G.J.K.",
"D.A.N.A.S.G.H.D.S.Z.M.x.V 5 , 5 6 ; : 8 ; O O O * * X X h S 3.6.r.>.S j e e t t u e t &.yXyXiXaXsX!.s A A.S.D.G.V.V.M.N.S.G.J.K.",
"D.S.D.S.S.G.G.G.V.N.S.N.V 5 , , 6 ; 9 : O O O o * * X X  .k S G F S F 4.w e y e e e e &.yXiXaXaXY.i t A V.S.G.G.C.A.S.A.S.H.J.K.",
"D.H.J.G.D.G.G.G.C.D.G.C.V O , , 6 ; O 6 O O o X * O < z t. .> > d F f.n.T z 7 8 8 8 t s.yXyXiX!.i 8 t A C.S.G.G.C.F.G.G.S.H.H.J.",
"D.H.J.G.C.C.m.A.A.D.H.S.V , , , O ; O O O X X O w 4 r < Z 2.2.} <.6.k. .N P I n z 8 8 -.yX7Xs.e e 8 > A C.C.M.N.C.F.G.G.S.S.V.S.",
"G.H.J.G.D.Z.Z.V.S.F.G.S.V 6 6 9 0 5 O O o % c P L l < < & 2 } ,.1.4.x M M P I I U U p s.yXU.: : : 8 8 A C.V.M.M.D.G.G.H.S.C.V.A.",
"F.J.J.G.S.C.S.C.V.S.G.G.@X].].].].].].`.` P P c b L r 2 & $ $ $ w z c c M P I I U U U 7.-.: ; : : > 8 A N.C.C.V.C.D.H.J.S.S.D.D.",
"F.H.J.H.C.G.H.D.C.C.G.G.,X0XqXqXqX0X5X'.P P P l P x x l 1 $ 1 P c c M M M P I I I I U T c n C N Z Z Z ..C.S.F.G.C.G.H.H.C.G.J.J.",
"F.C.N.S.C.H.H.G.B.B.x.N.,XqX0XqXqXqX3X| P z l P x x P x l P x x c b c M M P P I I T I T ] }. X X X X X XN.C.G.G.C.C.N.N.S.G.J.J.",
"G.C.N.A.C.G.G.D.C.M.N.M.,XqXqXqX5X5XY.c r P P l P x P x P l P P c M M M b P P I I I I T I L.rXrXrXrXrX$XA.S.G.G.V.N.N.N.C.G.J.K.",
"C.S.S.S.V.G.G.G.B.B.Z.Z.,XeX8XqXqX3X@.n r z z z x x l x x P x x c c c M P M M P M T M M I 7.7XrXrXrXtX$XN.C.D.G.V.C.C.C.C.G.K.J.",
"G.H.H.G.C.G.G.D.C.C.D.S.5X5XqX5X5X_.L l 1 l z P v x x P x P x x x b b M b M P M M M b l M T .X7XrX7XrX$XN.A.D.G.C.C.G.G.S.G.J.J.",
"C.H.J.G.C.V.x.V.B.D.D.D.3XqX5X5X5XL.c r < r l l x v x v x x x x x x x b b P b P b b v f b I R.7X7X7X7X$XN.V.x.N.V.F.G.G.S.D.N.C.",
"G.H.J.G.S.N.N.N.C.C.D.D.4X8X5X5X3XY L 4 & l r l x l x x x l l x z x x v c b b b b v v f x v ] :X<X<X<X$XC.N.x.N.C.G.G.H.G.A.V.A.",
"A.H.J.G.B.S.C.S.B.D.D.D.;X5X5X5X~.z r 4 $ @ 1 r l l l l l l g l g g z z x x b b b v f f f l b  X<X<X<X$XN.B.C.C.N.S.H.H.C.S.D.D.",
"G.H.H.G.S.D.H.S.C.D.C.D.,X8X5X3X@.r r 2 @   4 r l r g r f g g g g g g g g l f l v h # - 4 f l %.:X:X7X#XC.C.F.F.C.G.G.H.C.G.J.H.",
"C.S.N.C.C.G.H.G.N.V.M.B.,X8X5X~.P 4 2 < @ + 4 4 4 2 1 3 3 f 2 f 4 4 4 f 3 f f f f f + # 1 f f N  X:X.X XV.C.F.G.C.C.M.B.C.G.J.J.",
"G.B.C.B.D.G.G.G.C.N.N.N.-XqX3X~.^ 4 2 < @   < < 1 $ 1 1 1 f 4 4 4 3 4 3 2 3 = - - - . + & 2 B j s.:X| A N.C.G.G.C.N.N.N.F.G.J.K.",
"A.D.S.S.V.G.G.G.N.B.N.N.;X5X]._._.o.z > $   @ @ $ $ 1 1 1 3 1 f g 3 3 f 1 3 3 = - # - k F :.1.> X.E.s B N.F.D.D.V.C.C.A.C.G.J.J.",
"G.G.H.S.G.G.G.S.C.C.G.S.,X3X'.(.(.0.6.3.F d < @ $ $ 1 & 1 2 2 3 3 3 3 3 1 3 f # f % - F 5.i.i.D y j % ..N.C.S.D.C.F.F.F.C.H.H.J.",
"C.H.H.G.N.N.x.N.M.S.G.S.;X*X`.(.~.e.d.6.:.h L @ $ $ 1 & 1 1 3 2 3 1 1 3 - 2 l # - # + S 1.i.i.1.a.a.% a.N.V.x.N.V.C.H.G.C.C.V.S.",
"G.H.J.G.S.N.N.N.C.S.D.C.-X].`.`.E.r.5.5.F h Q 1 $ $ 1 1 = 1 1 1 1 3 1 3 - = h = # w % S :.5.c.p. X.Xj Q.V.N.m.x.V.C.H.H.S.S.N.C.",
"A.H.J.G.N.S.N.C.x.S.D.D.+X'.`.(.j.f.f.4.F Z r 2 $ $ 1 $ = 1 1 1 1 1 1 3 = = g - # D <.S 4.f.c.v.XX#XQ.|.m.A.V.A.N.C.G.H.A.S.A.G.",
"G.G.G.G.S.S.G.F.S.S.S.D.+X].`.(.j.f.f.e.D =.% = # = & & & = 2 2 3 1 - 2 2 = 3 f # k 8.G 3.i.i.i.XX1X$X#XC.C.F.C.C.C.D.G.C.G.H.H.",
"A.C.Z.S.V.G.G.G.N.V.x.N.Q.OXOXQ.h.h.h.h.u.g.H J H { G G H ..H J J [ G H J G J ..G J g.<.u.h.v.v.|.OXOXOXN.C.G.F.V.C.M.B.C.G.J.K.",
"G.A.C.C.D.G.H.S.S.M.N.N.V.S.G.S.V.z.z.l.Z.C.C.F.V.M.x.x.C.C.F.G.N.M.M.M.V.V.C.V.N.m.m.M.F.C.F.F.C.B.m.z.V.C.G.G.C.B.N.N.F.G.J.K.",
"S.D.C.C.V.G.H.S.N.V.N.A.m.S.F.V.z.V.m.N.x.C.F.F.N.B.V.N.N.G.C.G.N.A.N.B.N.V.F.F.m.N.m.B.N.V.F.F.m.C.N.V.N.C.G.F.V.C.N.S.C.G.J.K.",
"G.G.J.F.S.G.D.G.S.S.F.V.V.S.S.V.V.V.C.C.N.C.B.G.B.B.F.C.N.G.C.G.B.C.F.C.N.N.m.F.N.B.C.B.M.B.C.S.C.C.C.C.C.S.C.G.B.C.G.D.C.G.H.J.",
"S.H.J.G.V.V.M.A.N.D.F.S.m.V.x.M.m.V.C.C.z.B.l.N.N.C.F.F.N.N.z.N.N.C.F.C.m.m.l.N.m.M.C.F.m.M.m.M.B.C.C.F.N.N.M.N.B.F.G.G.C.F.N.C.",
"D.J.J.G.S.Z.M.M.V.F.S.S.V.x.x.l.m.V.C.V.m.x.z.l.N.C.C.C.N.x.z.x.V.C.C.C.N.z.m.z.M.C.D.C.C.M.M.M.M.C.F.D.Z.N.M.z.B.C.G.G.D.C.B.S.",
"S.G.H.G.V.V.V.V.V.S.S.V.M.Z.M.x.z.N.F.N.z.N.N.M.N.S.C.C.N.N.N.N.N.C.C.V.z.m.z.m.m.M.C.B.M.M.M.M.M.M.D.B.x.N.N.N.N.F.G.G.A.S.S.D."
};
