/* XPM */
static char *out[] = {
/* columns rows colors chars-per-pixel */
"64 64 211 2 ",
"   c #060607",
".  c #0A0B0C",
"X  c #0E0F13",
"o  c #0F1015",
"O  c #131415",
"+  c #151619",
"@  c #17181B",
"#  c #1B1C1E",
"$  c #201F1D",
"%  c #24201E",
"&  c #1D1E21",
"*  c #1F2023",
"=  c #222325",
"-  c #2A2523",
";  c #262827",
":  c #2C2926",
">  c #252629",
",  c #27282A",
"<  c #2A2A2C",
"1  c #322723",
"2  c #312B26",
"3  c #322D2B",
"4  c #2E302F",
"5  c #35322E",
"6  c #3B322D",
"7  c #2D2E31",
"8  c #2F3033",
"9  c #333334",
"0  c #3B3632",
"q  c #3E3A36",
"w  c #343539",
"e  c #37383A",
"r  c #3B3B3B",
"t  c #463933",
"y  c #423C35",
"u  c #4C3A34",
"i  c #433E3A",
"p  c #3F403F",
"a  c #484037",
"s  c #45413B",
"d  c #4B443D",
"f  c #56463C",
"g  c #3E3F40",
"h  c #3F4042",
"j  c #434344",
"k  c #4A4540",
"l  c #4E4A44",
"z  c #47494A",
"x  c #4A4B4A",
"c  c #4E4F4F",
"v  c #524C44",
"b  c #5A4B45",
"n  c #514E4A",
"m  c #52514E",
"M  c #5A5349",
"N  c #4E5153",
"B  c #525353",
"V  c #5C5955",
"C  c #535659",
"Z  c #56595C",
"A  c #5C5C5A",
"S  c #624F42",
"D  c #695A4B",
"F  c #79584A",
"G  c #775C52",
"H  c #5F605F",
"J  c #76654E",
"K  c #66625C",
"L  c #6C645B",
"P  c #595E62",
"I  c #5D6165",
"U  c #5F6569",
"Y  c #646462",
"T  c #64696D",
"R  c #6B6D6E",
"E  c #716D67",
"W  c #76726B",
"Q  c #686D72",
"!  c #777773",
"~  c #84573C",
"^  c #855844",
"/  c #975A4F",
"(  c #895D51",
")  c #9A6A4A",
"_  c #846254",
"`  c #886957",
"'  c #966854",
"]  c #936C5B",
"[  c #9A7158",
"{  c #A7775A",
"}  c #AB705A",
"|  c #8E6D60",
" . c #887566",
".. c #957865",
"X. c #957967",
"o. c #817D76",
"O. c #A37866",
"+. c #B57B68",
"@. c #AD7E70",
"#. c #888750",
"$. c #8C8B53",
"%. c #979456",
"&. c #A7A65D",
"*. c #A9A75F",
"=. c #948C6D",
"-. c #9B9669",
";. c #85827E",
":. c #8B877F",
">. c #988775",
",. c #968C7E",
"<. c #9C9376",
"1. c #AB836A",
"2. c #B8896A",
"3. c #A69669",
"4. c #B78A73",
"5. c #BA9676",
"6. c #A6A464",
"7. c #ACAC61",
"8. c #A8A768",
"9. c #B3B363",
"0. c #BDBB66",
"q. c #B9B56A",
"w. c #BEBC6A",
"e. c #B7B372",
"r. c #C78E7A",
"t. c #C69070",
"y. c #C89779",
"u. c #C0BF67",
"i. c #C1BF6B",
"p. c #C0BE72",
"a. c #C5C36D",
"s. c #C8C76E",
"d. c #C7C86D",
"f. c #CBCA6E",
"g. c #C9C770",
"h. c #CDCC71",
"j. c #C9C778",
"k. c #D0CF72",
"l. c #D0D070",
"z. c #D4D373",
"x. c #D8D775",
"c. c #D7D875",
"v. c #D9D976",
"b. c #DCDC78",
"n. c #958D81",
"m. c #94918B",
"M. c #97938B",
"N. c #A59785",
"B. c #A59D8F",
"V. c #A69F94",
"C. c #A6A283",
"Z. c #BBBA82",
"A. c #AAA397",
"S. c #A5A39B",
"D. c #A5A6A1",
"F. c #ACABA3",
"G. c #A9AAA6",
"H. c #B2AEA3",
"J. c #B0AEAA",
"K. c #B6B2A6",
"L. c #B5B3AC",
"P. c #BCB8AD",
"I. c #B6B6B1",
"U. c #BCBAB2",
"Y. c #BEBFBC",
"T. c #D29D89",
"R. c #D6A287",
"E. c #DCAA96",
"W. c #C3BD9D",
"Q. c #E6AE96",
"!. c #C3BCAA",
"~. c #C4BEB3",
"^. c #C9C586",
"/. c #C8C68A",
"(. c #CCCA8D",
"). c #D0CD8E",
"_. c #D4D18E",
"`. c #CBC997",
"'. c #D4D392",
"]. c #D7D593",
"[. c #C6C3A4",
"{. c #CBC8A7",
"}. c #C6C0B5",
"|. c #C9C2B6",
" X c #C6C3BA",
".X c #CAC5BC",
"XX c #CCC8BF",
"oX c #D3CCBE",
"OX c #D8D0BF",
"+X c #CBC7C0",
"@X c #CECBC2",
"#X c #D1CEC5",
"$X c #D3CFC8",
"%X c #D5D0C6",
"&X c #DCD4C4",
"*X c #DED8C7",
"=X c #D6D2C9",
"-X c #D9D5CB",
";X c #DDD9CE",
":X c #DCDBD3",
">X c #E0DAC6",
",X c #E4DDCC",
"<X c #E1DED3",
"1X c #DFE0D9",
"2X c #E6E1CE",
"3X c #E4E1D5",
"4X c #E8E2D2",
"5X c #E3E2DA",
"6X c #E9E6DB",
"7X c #EBE9DE",
"8X c #EBEAE0",
/* pixels */
"h.x.z.z.h.x.v.x.h.k.h.z.h.z.x.z.f.z.l.x.h.z.x.x.f.x.k.z.h.v.v.z.h.k.k.x.g.z.c.z.s.f.z.z.f.z.v.x.h.z.h.z.h.z.z.v.h.z.z.x.h.x.c.b.",
"z.h.a.h.k.z.c.z.k.g.a.f.f.z.z.z.h.s.u.i.f.l.z.x.h.h.a.s.k.z.z.z.h.g.a.h.h.z.x.z.f.s.u.s.f.k.c.z.g.h.i.a.g.z.c.z.k.h.a.d.h.x.v.b.",
"k.f.j.g.h.v.v.z.h.d.d.d.f.k.c.x.f.s.s.i.f.x.x.z.h.g.a.a.h.z.x.x.h.d.d.g.h.l.k.z.h.d.a.d.f.k.x.z.h.f.g.a.g.z.x.x.k.h.f.d.k.z.b.b.",
"k.k.z.k.h.x.v.z.l.f.k.g.f.k.z.z.h.h.h.s.s.k.l.x.f.f.k.f.g.z.c.z.d.g.h.h.h.l.c.z.f.f.h.f.f.k.x.x.h.k.h.g.h.k.x.x.h.f.k.h.z.x.v.b.",
"k.x.c.z.f.x.k.z.f.z.c.k.d.h.h.z.h.z.z.l.s.z.k.z.h.z.x.x.g.x.z.z.h.z.z.z.h.k.k.z.d.f.v.z.s.k.k.k.f.z.c.k.h.k.k.x.h.z.x.x.f.z.x.v.",
"k.x.v.x.h.f.a.h.h.z.z.z.f.d.i.a.h.x.x.z.s.s.i.g.h.z.x.z.g.h.w.d.h.z.k.v.h.a.w.d.d.f.c.z.g.g.i.a.g.k.z.z.h.h.i.a.g.z.c.c.h.k.d.h.",
"h.x.v.z.h.g.h.g.h.z.c.k.^.W.W.!.!.W.{.{.!.`.!.{.[.{.{.{.{.[.[.[.{.{.{.{.{.{.[.C.C.<.<.<.<.=.=.=.<.-.=.p.g.g.s.u.f.z.x.c.h.h.a.g.",
"z.x.v.x.h.h.z.g.h.z.c.k.^.!.~.!.~.~.~.~.~.~.~..X X.X.X.X.X.XXXXX+X@X@X@X#X@X+XB.N.n.,.,.n.,.,.>.,.,.n.p.g.h.k.h.f.z.v.v.k.h.z.z.",
"k.x.z.z.h.z.v.z.h.z.k.x./.~.~.~.~.~.~..X~.+X~.+X.X.X+X.X+X+X+X+X@X@X@X#X#X#X+XA.V.B.B.B.B.V.B.A.A.A.A.j.g.k.x.x.f.z.z.x.h.x.v.b.",
"k.h.a.h.h.z.v.z.g.d.i.d./.~.~.~.~.~.@X~..X+X.X.X+X+X+X@X@X@X@X@X@X@X#X#X#X%X$X#X$X$X%X%X%X%X%X%X#X%X%X(.f.z.c.c.l.k.a.d.h.z.b.b.",
"k.g.g.h.h.x.x.z.h.f.a.d./.~.|.|..X.X.X.X+X@XXX@X@X@X@X@X@X#X#X#X$X$X=X=X=X$X%X%X$X$X$X%X$X$X$X=X%X%X=X^.g.z.x.z.f.h.g.d.f.z.v.b.",
"h.k.z.k.h.z.x.z.h.h.h.h./. X.X+X.X.XXX.X@X@X@X@X@X#X@X#X#X#X#X#X$X=X$X=X=X=X=X=X-X-X%X-X-X$X$X=X=X-X=X(.f.k.z.x.h.h.k.k.l.x.v.b.",
"k.x.v.z.k.x.z.x.g.z.x.k.(..X+XXX.X@X.X@X@X#X#X#X#X$X#X$X=X=X=X=X=X=X=X=X=X-X-X-X-X-X%X-X-X-X-X-X-X=X-X_.g.z.k.x.f.z.c.x.k.z.z.b.",
"k.c.v.c.f.f.i.g.g.z.z.h./.+XXX@X@X@X#X#X#X#X%X$X$X%X=X=X=X=X=X=X=X=X-X-X-X-X-X-X-X&X-X-X-X-X-X-X-X-X-X_.f.f.a.a.f.z.c.v.h.k.d.f.",
"h.c.v.z.h.s.j.d.h.z.x.h./.XX@X@X#X#X#X%X%X$X$X=X=X=X-X-X-X-X-X-X-X-X-X;X-X-X-X;X>X<X-X-X>X-X>X;X;X;X-X_.g.g.d.i.d.z.x.c.h.g.f.g.",
"h.v.b.z.f.k.f.h.d.z.x.z./.@X#X#X#X%X#X%X=X=X-X=X-X-X-X-X-X-X-X-X;X-X:X:X<X;X<X;X<X-X-X<X<X-X<X-X;X;X;X_.g.h.g.h.g.h.x.v.h.z.h.z.",
"z.c.z.z.h.z.x.z.h.z.h.k.(.#X#X$X%X=X=X=X-X-X-X-X-X;X;X;X-X=X$XXX-X<X<X<X<X:X<X:X<X<X:X;X:X<X<X<X3X3X1X_.g.k.z.z.f.z.z.z.h.x.v.v.",
"h.j.a.h.f.z.z.z.d.f.w.d.(.$X=X+XL.L.L.L.L.L.L.L.L.P.L.P.L.S.W S.V.S.J.L.L.I.I.I.I.I.I.I.L.J.J.J.J.G.G.e.d.z.z.z.f.f.a.g.h.z.v.v.",
"z.s.h.g.k.z.v.z.h.d.g.a.).$X@XA : 7 < 7 7 8 7 7 7 9 e k l 0 < 9 9 9 0 i i c N C Z P U T T E T Q Q T T 8.h.z.c.z.f.f.f.d.h.z.v.b.",
"h.z.h.h.h.z.v.z.g.k.g.h.(.@XA < , < < < < < < 7 7 9 i 3 : , ; : < < < 0 k m N N C P P P :.U.Q T U U U 8.d.k.z.c.f.k.f.h.h.x.b.b.",
"z.z.x.z.h.z.k.z.h.k.c.k.).R : , < < < < < 4 < 4 7 k 9 > = 3 : , 6 0 r 3 t n B B C C P n.%X.XR T U I I 8.j.l.l.c.f.f.z.z.k.z.z.v.",
"f.x.v.x.h.a.i.g.a.z.z.z.$., , , < < < < 4 < 4 5 i V < - * 9 0 3 3 k k i x M m B N C R $X,XXXR I I P P 8.d.h.i.a.f.z.v.v.f.l.d.g.",
"z.x.v.x.h.s.h.s.h.k.z.k.$., , , ; < < < < 4 4 e :.3 w u u u u u t 1 < 2 3 l k c c o.%X,X<X#XR P P Z Z 8.h.j.a.i.h.z.c.x.k.g.g.h.",
"h.x.v.z.f.h.s.h.a.z.k.h.$.< , , ; ; : < < 4 9 K.n.@ b | ( ( } / / ^ t # : k t n E *X,X<X3X#XT Z C C C 8.d.h.d.h.d.z.z.v.f.z.f.z.",
"k.x.k.x.h.k.x.k.h.h.g.k.$., ; : ; < < < 4 0 M.%Xo.O J G ( F / N.' F ] F % 6 i ! -X2X1X3X6XXXY C C C C 8.f.f.z.z.h.z.z.z.h.k.v.x.",
"h.f.a.g.f.z.x.k.g.d.w.a.#., , ; < ; < < 4 :.@X=X! O _ ` _ | | T.{ } 5.O.1 - a %X2X2X4X7X6XXXI B B B B %.a.f.z.z.f.g.i.a.h.z.v.v.",
"z.g.g.f.h.x.x.z.h.a.a.a.$., ; , < ; < 5 :.XX#X$Xo.= _ _ / @.O.T.5.( G O.F % t >X4X6X6X6X7X@XI B B B B -.a.h.x.z.h.s.a.a.k.z.v.b.",
"h.h.h.h.f.z.x.z.g.g.h.a.#.; : , < : 4 ,.XX@X=X1X;.: _ 4.T.N.@.E.T.E.E.R.4.3 y ;X4X6X7X6X7X@XK N m c c 6.d.k.z.x.f.h.f.h.h.x.v.b.",
"z.x.v.z.h.z.h.z.h.k.z.h.$.: ; : : 4 ;.XXoX%X1X1Xn.* | 4.r.+./ } t.y.Q.R.1.5 D 5X6X7X7X7X7X@XA c x m x 8.f.f.k.x.f.l.z.z.k.x.z.v.",
"f.x.v.z.f.f.a.f.s.z.z.z.$., , : : W  XXX%X:X1X1XU.6 G [ } ' ^ ^ +.2.y.t.` 0 E 6X7X7X7X7X7X#XH c m m m 8.d.s.u.a.f.l.v.v.h.f.d.f.",
"z.c.v.z.z.f.d.g.f.z.z.k.$., ; 4 W |.oX%X:X1X1X1X:Xb G ' ' ( / +.+.} { 2.f 6 }.6X6X7X7X8X8XU.M n n n v 8.f.d.a.a.f.z.z.v.k.h.s.h.",
"h.c.v.x.f.f.h.g.s.z.z.h.$.: : E |.oX%X:X1X1X1X1X:XJ.L ] [ / / } t.t.2.2._ L 6X8X7X8X7X8X-XK m x v m v 6.f.g.f.f.f.z.x.v.f.k.h.k.",
"k.z.z.z.h.z.x.k.h.k.k.k.$.: E |.oX#X;X1X1X-XXX XY.Y.V.] [ 1.t.y.y.y.t.2.L 1X7X7X8X8X8X@XV n v n n n n &.f.h.z.z.f.z.z.z.h.z.x.v.",
"k.h.a.h.h.z.x.k.s.a.i.a.#.K ~.oX#X;X1X1X@XU.H.F.G.G.D.X.[ O.+.t.t.y.2...;X6X7X7X8X8X:XK l l v v v v v 6.a.f.z.z.h.f.a.s.h.z.v.v.",
"z.g.a.g.h.z.z.k.g.a.a.u.8.~.oX%X:X1X1X@XU.F.F.F.G.G.D.>.` _ ~ ~ ) ) ) >.$X1X8X7X6X$XM l l l v v D D D 6.s.f.k.z.s.d.w.a.h.z.v.b.",
"k.h.z.h.g.z.x.z.s.s.f.a.^.oX%X;X2X1X%XU.K.F.F.F.F.G.S.>...` ^ ~ ~ ) ) C.1X8X8X8X#XK l d d l v M J J J *.s.l.z.z.g.f.h.s.h.x.v.b.",
"k.x.c.z.k.z.z.z.f.k.z.f.(.%X;X5X5X;X XK.H.A.F.F.G.G.S.>.X.X.{ ) ) %.y.oX8X8X8X:Xl d d s d v d v v M D 9.f.k.z.z.h.f.z.z.h.x.c.v.",
"k.x.v.z.f.s.i.g.g.z.z.k.(.:X3X5X1XoXP.H.H.F.F.H.M.Z x X.X.X.[ ) { y.y. .! #X1XH y s s s s d f v d f D i.s.s.i.s.f.z.z.z.h.h.d.h.",
"z.v.v.z.k.g.a.a.h.k.z.z.'.3X5X3X-X XK.F.F.F.H.G.V O 5 | X.X.` { 2.y.5.S ; ,.p p q s y s a s d d d M N.].f.s.i.i.h.z.z.x.h.h.a.g.",
"h.z.v.x.h.f.k.f.s.l.z.z.).5X5X1X@X!.H.H.K.S.G.S.p = 2 S D G D  .1.5.3...p p p p y q q y u s a d v <.*X_.s.s.f.s.f.z.x.x.h.h.h.z.",
"z.z.x.z.k.z.x.z.g.f.z.z.].5X1X-X.XK.H.H.F.G.D.S.> @ & & & o 7 * < r l 5 8 & . X & r t q y y a d N.,X,X'.s.h.z.z.f.z.x.x.h.z.c.v.",
"k.h.a.h.f.z.z.z.d.d.u.s.`.5X:X%X~.K.H.F.B.;.! h & & & & + o > * ; * $ * & > 7 , > , e i y y d <.>X2X4X).s.f.z.z.f.f.a.g.g.x.v.v.",
"k.s.s.g.h.z.z.k.g.a.a.u.'.8X3X#XK.K.m.p w w 8 4 > o & & & o & 7 > > = = & & & 7 7 w 9 g s a N.,X2X2X4X(.d.h.z.z.d.d.a.u.h.z.v.b.",
"h.k.h.h.d.z.z.z.g.g.a.d.$.9 5 6 ; 4 4 ; < < < , 7 > o & & > > > + # # # & 7 7 7 7 7 7 w j L &X,X2X2X4X(.a.f.k.z.d.s.s.f.h.z.v.v.",
"z.x.x.z.h.z.z.h.f.h.h.g.$.: 2 3 > g , > , , , , > * & > > > > & @ @ > , 7 7 g 7 w 7 8 g g P &X<X,X2X4X_.a.g.h.k.d.h.z.z.h.z.c.v.",
"g.x.v.z.d.f.w.d.f.l.z.h.$.2 : 2 7 , > > * 7 > , > > & & * * & o , > , 7 8 8 7 7 8 7 7 8 8 g ~.,X,X2X2X'.a.d.w.d.d.k.z.z.h.h.d.h.",
"z.x.v.z.h.a.a.a.f.f.l.l.$.: < : > > > > > * > > , 7 & , & & & X , , 7 7 8 7 8 8 7 , > 8 8 w F.,X,X2X2X].s.s.i.u.g.z.z.x.h.h.d.a.",
"h.x.v.z.s.h.s.h.a.z.l.f.#.: < > & & > > > > > > > > * & * 7 & o > , , 7 7 7 , 7 7 7 > 7 > , n.<X,X2X2X].d.g.g.s.d.k.x.x.h.h.h.z.",
"z.c.z.z.k.k.z.k.h.h.k.k.$.> % % o & = > = = > > > > & * > g > o * , < < < 7 , < 8 8 & > & < K 2X>X2X2X].f.f.l.l.f.z.z.z.k.z.x.x.",
"g.h.a.h.d.z.c.z.a.d.u.a.#.% $ % . + > > * = * > > > > * > g 7 & , , 7 < < < < < < 8 o * @ < V 2X,X,XoXq.a.f.l.z.f.d.u.s.g.x.v.c.",
"z.f.f.s.k.z.c.z.f.a.a.a.$.% # $ . . ; = = * > > > > > & > g > > * , < e w e w < , 8 o @ @ ; j *X,X|.M $.f.f.z.z.f.f.a.a.f.z.v.b.",
"f.z.g.h.d.z.z.k.a.a.a.d.#.$ @ @ .   = = * * * > > > & > > g > > * , w z z z N e , 7 * O + ; p OX~.d 1 %.a.f.k.z.a.f.f.g.f.z.v.b.",
"k.z.v.h.k.z.k.k.f.f.z.f.-.A C B =   = * * * * * * > * * > g > > * , > 8 8 8 e 8 , < 7 O @ ; r A.l % 1 %.s.f.h.k.f.f.z.l.h.c.v.v.",
"g.x.c.z.g.a.i.a.p.f.z.h.e.L.G.G.z   # * * * * * & > * & & > & * & > , > , , < < , , , + @ * 9 p % % % %.a.s.0.a.a.z.z.c.f.f.a.h.",
"z.c.v.z.h.a.a.a.h.h.k.f.(.@XI.F.Z X # * # * * & * > * & & > & > * , , , , , < , , < < @ @ $ 9 d t t u 3.s.u.w.w.d.f.x.z.h.h.d.s.",
"g.c.v.z.a.h.a.g.i.h.k.h.Z.K.G.G.Z & # * # # $ $ & * * & & > & * ; * , * * ; , ; < < < @ + $ 4 L 3.3.3.p.a.f.f.g.a.f.z.z.g.h.g.z.",
"z.x.z.z.f.z.z.f.f.h.h.k.^.G.F.G.Z > # & & # # # # & & # @ ; # * * * > ; * ; * , ; < 4 O O O 5 E OX&X&X_.f.f.l.f.f.f.k.z.h.k.x.x.",
"f.f.p.h.s.z.z.z.a.d.w.d.Z.F.F.G.Z > # # & # # # # & & # @ ; # ; * > * ; ; * ; > : < 9 O X X 9 L OX&X>X(.a.f.z.k.d.f.u.s.h.z.v.v.",
"z.g.f.f.k.z.z.h.h.a.a.w.g.j.j.j.9.*.&.&.&.9.9.9.7.6.6.&.7.9.9.9.7.&.7.&.7.9.7.9.*.&.*.&.9.*.0.u.j.j.a.w.a.l.z.z.f.f.a.i.k.z.v.b.",
"h.k.f.k.d.l.x.z.i.d.d.d.a.f.l.f.0.a.0.a.0.d.l.l.a.a.d.a.a.k.h.k.a.h.a.d.a.d.l.f.0.a.a.s.a.d.l.l.i.k.a.d.a.f.z.h.d.f.d.h.f.z.v.b.",
"k.z.x.z.k.z.k.k.f.f.k.f.s.f.l.f.d.d.f.d.a.f.f.k.d.d.l.f.d.h.h.z.a.f.l.f.a.d.d.f.a.a.f.d.a.s.s.s.s.s.h.f.a.h.h.z.f.f.z.l.h.z.x.v.",
"h.x.x.z.f.g.i.s.a.k.k.h.0.a.0.a.u.d.f.l.0.s.q.i.a.f.l.l.a.d.0.a.a.f.l.f.0.0.0.a.0.a.f.l.u.i.u.i.s.s.l.h.d.g.w.d.d.f.z.z.f.k.s.f.",
"z.c.v.z.h.i.a.a.f.f.h.h.d.w.0.q.w.d.f.d.u.w.0.w.a.s.f.f.a.w.w.w.d.f.f.f.a.0.0.0.a.d.h.h.s.i.i.0.a.a.l.h.a.a.0.0.f.f.z.z.k.g.a.g.",
"h.x.z.z.d.d.d.d.a.h.h.d.w.a.a.w.0.a.l.a.0.a.a.u.a.h.l.f.i.a.a.d.a.f.l.d.0.0.0.0.0.a.f.s.u.i.a.i.i.s.h.f.w.a.a.d.a.k.z.x.g.k.h.k."
};
